<svg id="Layer_1" data-name="Layer 1" xmlns="http://www.w3.org/2000/svg" xmlns:xlink="http://www.w3.org/1999/xlink" viewBox="0 0 298.41 326.58"><defs><style>.cls-1{fill:#fcfdfc;}.cls-2{fill:url(#linear-gradient);}.cls-3{fill:url(#linear-gradient-2);}</style><linearGradient id="linear-gradient" x1="280.21" y1="1353.81" x2="475.79" y2="1491.76" gradientUnits="userSpaceOnUse"><stop offset="0.23" stop-color="#414141"/><stop offset="0.85"/></linearGradient><linearGradient id="linear-gradient-2" x1="348.03" y1="1403.66" x2="378.26" y2="1420.39" gradientUnits="userSpaceOnUse"><stop offset="0.2" stop-color="#414141"/><stop offset="0.85"/></linearGradient></defs><title>Isotopo-Negro</title><path class="cls-1" d="M280,1300.53a80.89,80.89,0,0,1,15.81.74c1.75.27,2.31-.66,2.84-2a95.65,95.65,0,0,1,26.4-38c20.94-18.33,53-18.06,73.52.76,11.06,10.15,19.69,22.11,25,36.27.91,2.46,2.47,3.08,4.84,2.73a102.3,102.3,0,0,1,35.75,1.47c21.54,4.46,36.46,16.75,43.64,37.72,4.32,12.64,2.92,25.26-1.07,37.77a95.79,95.79,0,0,1-16.42,30.34c-1.61,2-1.54,3.44,0,5.44,9.89,12.65,16.83,26.65,19.33,42.71,5.26,33.72-19.45,58.2-44.15,62.86-11.68,2.21-23.38,3.42-35.27,1.73-5.17-.74-5.16-.58-7.24,4.16a101.34,101.34,0,0,1-26.12,36.13c-16,14-48.81,21.08-73.53-2.26a95.63,95.63,0,0,1-24.28-35.6c-.78-2-1.95-3-4.11-2.72-1.82.21-3.65.27-5.47.48a89.58,89.58,0,0,1-41.8-5c-19.17-7.13-29.94-21.59-34.59-41.16-2.37-10-.4-19.51,2.29-29a93.5,93.5,0,0,1,16.42-31.77c2.62-3.39,2.56-3.45,0-6.88-8.38-11.18-14.93-23.22-17.87-37.05-7.8-36.72,16.44-62.83,45.56-68.37A83.09,83.09,0,0,1,280,1300.53Zm163.77,193.92a74.21,74.21,0,0,0,14.58-1.58c16.16-3.16,26.33-16.41,24.06-31.75a63.34,63.34,0,0,0-9.65-24.7c-5.38-8.48-12-16-18.83-23.27-1.52-1.62-1.59-2.84,0-4.43a161.84,161.84,0,0,0,10.9-12.36c8.22-10.13,14.83-21.07,17.47-34.08a27.64,27.64,0,0,0-17.92-31.4,64.69,64.69,0,0,0-19.35-3.41c-12-.35-23.69,1.87-35.28,4.73-3.26.8-3.36.75-4.3-2.55a182.42,182.42,0,0,0-5.87-17.5c-4.15-10.38-9.42-20-17.51-27.94-12-11.71-27.54-12.2-40.12-1.18A61,61,0,0,0,330,1298c-5.95,10-9.54,20.86-12.76,31.9-.7,2.43-1.75,2.93-4.13,2.31a137.73,137.73,0,0,0-27.05-4.52c-8.61-.5-17.17-.26-25.48,2.37-14.69,4.64-22.11,16.39-20.16,31.7.8,6.32,3.17,12.09,6.09,17.67,5.68,10.89,13.57,20.13,21.92,29,2.14,2.27,2.15,2.62.1,4.94-3,3.36-6,6.68-8.93,10.11-8.49,10-15.5,20.84-18.71,33.78-3.83,15.47,4.56,30.51,19.38,34.56a78.81,78.81,0,0,0,28.48,2.39,157.47,157.47,0,0,0,24.3-4.47c2.89-.75,3.41-.42,4.24,2.51.62,2.16,1.17,4.34,1.87,6.47,4.42,13.45,9.69,26.44,19.5,37,8.55,9.27,18.68,13.51,31.22,9.7,7.52-2.28,12.83-7.63,17.5-13.58,9.09-11.6,14.14-25.09,17.76-39.19.83-3.24,1.57-3.72,4.82-2.92C420.44,1492.39,431.06,1494.41,443.78,1494.45Z" transform="translate(-212.04 -1247.69)"/><path class="cls-2" d="M443.78,1494.45c-12.72,0-23.34-2.06-33.87-4.69-3.25-.8-4-.32-4.82,2.92-3.62,14.1-8.67,27.59-17.76,39.19-4.67,6-10,11.3-17.5,13.58-12.54,3.81-22.67-.43-31.22-9.7-9.81-10.61-15.08-23.6-19.5-37-.7-2.13-1.25-4.31-1.87-6.47-.83-2.93-1.35-3.26-4.24-2.51a157.47,157.47,0,0,1-24.3,4.47,78.81,78.81,0,0,1-28.48-2.39c-14.82-4-23.21-19.09-19.38-34.56,3.21-12.94,10.22-23.78,18.71-33.78,2.9-3.43,5.94-6.75,8.93-10.11,2-2.32,2-2.67-.1-4.94-8.35-8.88-16.24-18.12-21.92-29-2.92-5.58-5.29-11.35-6.09-17.67-2-15.31,5.47-27.06,20.16-31.7,8.31-2.63,16.87-2.87,25.48-2.37a137.73,137.73,0,0,1,27.05,4.52c2.38.62,3.43.12,4.13-2.31,3.22-11,6.81-21.95,12.76-31.9A61,61,0,0,1,342,1283c12.58-11,28.14-10.53,40.12,1.18,8.09,7.9,13.36,17.56,17.51,27.94a182.42,182.42,0,0,1,5.87,17.5c.94,3.3,1,3.35,4.3,2.55,11.59-2.86,23.26-5.08,35.28-4.73a64.69,64.69,0,0,1,19.35,3.41,27.64,27.64,0,0,1,17.92,31.4c-2.64,13-9.25,24-17.47,34.08a161.84,161.84,0,0,1-10.9,12.36c-1.58,1.59-1.51,2.81,0,4.43,6.86,7.28,13.45,14.79,18.83,23.27a63.34,63.34,0,0,1,9.65,24.7c2.27,15.34-7.9,28.59-24.06,31.75A74.21,74.21,0,0,1,443.78,1494.45ZM398,1411.08c.16-6.09-.22-12.16-.43-18.24a4.35,4.35,0,0,0-2.16-3.92c-10.38-6.48-20.93-12.68-31.78-18.35a4.49,4.49,0,0,0-4.51,0q-16.23,8.6-31.76,18.41a4.59,4.59,0,0,0-2.33,4.32q.11,17.51,0,35a5.13,5.13,0,0,0,2.5,4.81c10.38,6.49,20.92,12.7,31.79,18.35a4.07,4.07,0,0,0,4,0c11-5.75,21.74-12,32.26-18.63a3.94,3.94,0,0,0,1.91-3.53C397.77,1423.23,398.16,1417.16,398,1411.08ZM280.17,1345a46.92,46.92,0,0,0-14.74,2.21c-5.63,1.77-8.2,6.17-7.43,11.92a38.47,38.47,0,0,0,5.79,14.92c5.21,8.52,11.94,15.88,18.94,23,1.22,1.24,2.08,1.2,3.34.12q8.93-7.61,18.53-14.37a8.93,8.93,0,0,0,4.13-6.55c.79-8,2-16,3.27-24a2.08,2.08,0,0,0-1.8-2.72C300.28,1347.41,290.39,1345.13,280.17,1345Zm80.14,183.89a11.84,11.84,0,0,0,8.77-3.49,56.32,56.32,0,0,0,8-10.18c5.65-9.17,8.73-19.37,12-29.51.57-1.77-.59-2.18-1.76-2.65-7.32-3-14.7-5.83-22-9a9.44,9.44,0,0,0-8.11.06c-6.78,2.92-13.62,5.69-20.64,8-3.4,1.12-3.53,1.63-2.39,5.06,1.75,5.2,3.38,10.45,5.34,15.57,3.38,8.88,8,17,15.21,23.44C356.55,1527.82,358.57,1528.88,360.31,1528.88ZM361.88,1349a8.5,8.5,0,0,0,1.24-.36c8.18-3.28,16.35-6.6,24.55-9.85,1.48-.59,1.8-1.38,1.31-2.87-2.12-6.4-4-12.88-6.61-19.1-3.18-7.5-7.22-14.46-13.12-20.18-5.19-5-11-5-16,.2a56.53,56.53,0,0,0-7.54,9.61c-5.6,9-8.73,19-11.78,29.06-.6,2-.13,2.79,1.74,3.52,7.75,3,15.44,6.21,23.15,9.33A6.14,6.14,0,0,0,361.88,1349ZM442.64,1477a33.12,33.12,0,0,0,8.09-.67,45,45,0,0,0,6.79-1.63c5.57-1.87,8.13-6.34,7.1-12.07a40.61,40.61,0,0,0-3.6-10.33c-5.11-10.7-13.08-19.21-21.17-27.63-1.15-1.2-2-.87-3.18.1q-9.62,8.17-20,15.41a5.64,5.64,0,0,0-2.55,4.32c-.87,8.45-1.92,16.87-3.5,25.22-.26,1.38.13,2.25,1.59,2.57C422.08,1474.44,431.89,1476.76,442.64,1477Zm-162,0c9.9-.13,19.45-2.44,29.05-4.51,1.93-.42,2.49-1.68,2.14-3.55-1.54-8.26-2.59-16.6-3.41-25a3.93,3.93,0,0,0-1.47-3c-7.12-5.29-14.32-10.49-21.11-16.23-1.23-1-2.19-.77-3.21.33-2.42,2.63-4.94,5.18-7.34,7.83-7.34,8.08-13.48,17-16.89,27.41-2.7,8.27,2.16,13.1,7.72,14.66A50.67,50.67,0,0,0,280.68,1476.91Zm163-132c-8.11.06-25.93,2.91-31.59,4.69-1.65.53-1.65,1.53-1.4,2.89q2.31,12.4,3.41,25a5.06,5.06,0,0,0,2.21,4c6.9,4.94,13.68,10,20.13,15.56,1.39,1.18,2.44,1.33,3.81-.1a164.94,164.94,0,0,0,12-13.39c5.55-7.23,10.47-14.82,12.42-23.92,1.25-5.85-1.19-10.09-6.84-12.13A43.71,43.71,0,0,0,443.66,1344.93Zm-103.09,117c-4.13-2.38-7.79-4.47-11.44-6.58-1.11-.64-1.33-.07-1.2.9.38,2.88.79,5.76,1.19,8.64.14,1,.75,1.23,1.61.89C333.85,1464.53,337,1463.31,340.57,1461.89Zm.1-101.86-9.93-3.87c-.82-.32-1.47-.29-1.62.8-.39,2.87-.81,5.74-1.2,8.61-.19,1.45.39,1.55,1.51.89C333,1364.39,336.61,1362.35,340.67,1360Zm54.46,94.54c-4.76,2-8.51,4.8-13,7.29l9.66,3.85c.82.33,1.53.29,1.7-.74C394.05,1461.63,394.55,1458.29,395.13,1454.57Zm-88.48-36.41v-14.49l-7.79,6.33c-.65.53-1.06,1.09-.18,1.79Zm88.55-50.61c-.62-4-1.14-7.24-1.65-10.51-.1-.63-.36-1.29-1.08-1-3.35,1.23-6.67,2.55-10.48,4Zm20.88,50.73c2.91-2.36,5.39-4.39,7.88-6.4.61-.5.88-1.1.2-1.66-2.56-2.13-5.16-4.2-8.08-6.56Z" transform="translate(-212.04 -1247.69)"/><path class="cls-1" d="M398,1411.08c.16,6.08-.23,12.15-.46,18.23a3.94,3.94,0,0,1-1.91,3.53c-10.52,6.62-21.24,12.88-32.26,18.63a4.07,4.07,0,0,1-4,0c-10.87-5.65-21.41-11.86-31.79-18.35a5.13,5.13,0,0,1-2.5-4.81q.09-17.51,0-35a4.59,4.59,0,0,1,2.33-4.32q15.52-9.83,31.76-18.41a4.49,4.49,0,0,1,4.51,0c10.85,5.67,21.4,11.87,31.78,18.35a4.35,4.35,0,0,1,2.16,3.92C397.78,1398.92,398.16,1405,398,1411.08Zm-36.82,17.08c10.43-.21,17.63-7.55,17.42-17.76-.19-9.2-8.41-17.09-17.57-16.86-9.87.25-17.24,8.24-17,18.41A16.7,16.7,0,0,0,361.18,1428.16Z" transform="translate(-212.04 -1247.69)"/><path class="cls-1" d="M280.17,1345c10.22.14,20.11,2.42,30,4.54a2.08,2.08,0,0,1,1.8,2.72c-1.23,8-2.48,15.94-3.27,24a8.93,8.93,0,0,1-4.13,6.55q-9.6,6.75-18.53,14.37c-1.26,1.08-2.12,1.12-3.34-.12-7-7.1-13.73-14.46-18.94-23a38.47,38.47,0,0,1-5.79-14.92c-.77-5.75,1.8-10.15,7.43-11.92A46.92,46.92,0,0,1,280.17,1345Z" transform="translate(-212.04 -1247.69)"/><path class="cls-1" d="M360.31,1528.88c-1.74,0-3.76-1.06-5.56-2.65-7.25-6.4-11.83-14.56-15.21-23.44-2-5.12-3.59-10.37-5.34-15.57-1.14-3.43-1-3.94,2.39-5.06,7-2.31,13.86-5.08,20.64-8a9.44,9.44,0,0,1,8.11-.06c7.26,3.12,14.64,6,22,9,1.17.47,2.33.88,1.76,2.65-3.24,10.14-6.32,20.34-12,29.51a56.32,56.32,0,0,1-8,10.18A11.84,11.84,0,0,1,360.31,1528.88Z" transform="translate(-212.04 -1247.69)"/><path class="cls-1" d="M361.88,1349a6.14,6.14,0,0,1-3.08-.64c-7.71-3.12-15.4-6.3-23.15-9.33-1.87-.73-2.34-1.54-1.74-3.52,3-10,6.18-20,11.78-29.06a56.53,56.53,0,0,1,7.54-9.61c5-5.15,10.83-5.24,16-.2,5.9,5.72,9.94,12.68,13.12,20.18,2.63,6.22,4.49,12.7,6.61,19.1.49,1.49.17,2.28-1.31,2.87-8.2,3.25-16.37,6.57-24.55,9.85A8.5,8.5,0,0,1,361.88,1349Z" transform="translate(-212.04 -1247.69)"/><path class="cls-1" d="M442.64,1477c-10.75-.19-20.56-2.51-30.39-4.71-1.46-.32-1.85-1.19-1.59-2.57,1.58-8.35,2.63-16.77,3.5-25.22a5.64,5.64,0,0,1,2.55-4.32q10.32-7.26,20-15.41c1.14-1,2-1.3,3.18-.1,8.09,8.42,16.06,16.93,21.17,27.63a40.61,40.61,0,0,1,3.6,10.33c1,5.73-1.53,10.2-7.1,12.07a45,45,0,0,1-6.79,1.63A33.12,33.12,0,0,1,442.64,1477Z" transform="translate(-212.04 -1247.69)"/><path class="cls-1" d="M280.68,1476.91a50.67,50.67,0,0,1-14.52-2.07c-5.56-1.56-10.42-6.39-7.72-14.66,3.41-10.44,9.55-19.33,16.89-27.41,2.4-2.65,4.92-5.2,7.34-7.83,1-1.1,2-1.37,3.21-.33,6.79,5.74,14,10.94,21.11,16.23a3.93,3.93,0,0,1,1.47,3c.82,8.37,1.87,16.71,3.41,25,.35,1.87-.21,3.13-2.14,3.55C300.13,1474.47,290.58,1476.78,280.68,1476.91Z" transform="translate(-212.04 -1247.69)"/><path class="cls-1" d="M443.66,1344.93a43.71,43.71,0,0,1,14.11,2.52c5.65,2,8.09,6.28,6.84,12.13-1.95,9.1-6.87,16.69-12.42,23.92a164.94,164.94,0,0,1-12,13.39c-1.37,1.43-2.42,1.28-3.81.1-6.45-5.51-13.23-10.62-20.13-15.56a5.06,5.06,0,0,1-2.21-4q-1.08-12.57-3.41-25c-.25-1.36-.25-2.36,1.4-2.89C417.73,1347.84,435.55,1345,443.66,1344.93Z" transform="translate(-212.04 -1247.69)"/><path class="cls-1" d="M340.57,1461.89c-3.61,1.42-6.72,2.64-9.84,3.85-.86.34-1.47.11-1.61-.89-.4-2.88-.81-5.76-1.19-8.64-.13-1,.09-1.54,1.2-.9C332.78,1457.42,336.44,1459.51,340.57,1461.89Z" transform="translate(-212.04 -1247.69)"/><path class="cls-1" d="M340.67,1360c-4.06,2.32-7.66,4.36-11.24,6.43-1.12.66-1.7.56-1.51-.89.39-2.87.81-5.74,1.2-8.61.15-1.09.8-1.12,1.62-.8Z" transform="translate(-212.04 -1247.69)"/><path class="cls-1" d="M395.13,1454.57c-.58,3.72-1.08,7.06-1.62,10.4-.17,1-.88,1.07-1.7.74l-9.66-3.85C386.62,1459.37,390.37,1456.53,395.13,1454.57Z" transform="translate(-212.04 -1247.69)"/><path class="cls-1" d="M306.65,1418.16l-8-6.37c-.88-.7-.47-1.26.18-1.79l7.79-6.33Z" transform="translate(-212.04 -1247.69)"/><path class="cls-1" d="M395.2,1367.55,382,1360c3.81-1.48,7.13-2.8,10.48-4,.72-.26,1,.4,1.08,1C394.06,1360.31,394.58,1363.58,395.2,1367.55Z" transform="translate(-212.04 -1247.69)"/><path class="cls-1" d="M416.08,1418.28v-14.62c2.92,2.36,5.52,4.43,8.08,6.56.68.56.41,1.16-.2,1.66C421.47,1413.89,419,1415.92,416.08,1418.28Z" transform="translate(-212.04 -1247.69)"/><path class="cls-3" d="M361.18,1428.16A16.7,16.7,0,0,1,344.06,1412c-.27-10.17,7.1-18.16,17-18.41,9.16-.23,17.38,7.66,17.57,16.86C378.81,1420.61,371.61,1428,361.18,1428.16Z" transform="translate(-212.04 -1247.69)"/></svg>