<svg width="365" height="278" viewBox="0 0 365 278" fill="none" xmlns="http://www.w3.org/2000/svg">
<path d="M7.50318 93.7144C7.54986 95.682 5.72543 97.5393 3.74827 97.5308C1.84748 97.5266 0.0612424 95.7965 0.0103284 93.9179C-0.0405857 91.9546 1.77959 90.1227 3.76948 90.127C5.72543 90.1312 7.45651 91.7935 7.50318 93.7144Z" fill="#6A7DF3"/>
<path d="M214.189 75.0564C212.148 75.0606 210.4 73.2839 210.442 71.2527C210.485 69.2724 212.131 67.6992 214.168 67.6907C216.192 67.6822 217.88 69.2639 217.931 71.2188C217.986 73.2033 216.179 75.0564 214.189 75.0564Z" fill="#6A7DF3"/>
<path d="M3.80342 45.1823C5.84847 45.2035 7.47772 46.7809 7.50318 48.7612C7.52863 50.7373 5.67876 52.5861 3.71008 52.5564C1.79656 52.5267 0.0357774 50.7882 0.00607754 48.8969C-0.0236223 46.8488 1.69897 45.1611 3.80342 45.1823Z" fill="#6A7DF3"/>
<path d="M184.179 52.5523C182.283 52.5904 180.458 50.89 180.378 49.003C180.289 46.9549 181.964 45.2205 184.065 45.1866C186.101 45.1527 187.786 46.692 187.866 48.6595C187.947 50.6144 186.152 52.5099 184.179 52.5523Z" fill="#6A7DF3"/>
<path d="M187.866 93.8883C187.82 95.7541 186.029 97.5139 184.15 97.5351C182.155 97.5563 180.339 95.7371 180.373 93.7526C180.407 91.785 182.304 90.038 184.302 90.1397C186.254 90.233 187.913 91.9801 187.866 93.8883Z" fill="#6A7DF3"/>
<path d="M3.70582 180.122C5.72541 180.084 7.52862 181.861 7.50317 183.867C7.48195 185.809 5.81027 187.446 3.81189 187.479C1.82624 187.513 0.0951649 185.919 0.010308 183.985C-0.0745488 182.001 1.68623 180.16 3.70582 180.122Z" fill="#6A7DF3"/>
<path d="M187.866 138.871C187.837 140.754 186.076 142.488 184.162 142.518C182.121 142.552 180.331 140.775 180.378 138.761C180.42 136.793 182.329 135.008 184.294 135.101C186.207 135.195 187.896 136.971 187.866 138.871Z" fill="#6A7DF3"/>
<path d="M217.931 26.5117C217.812 28.3732 215.928 30.1245 214.1 30.0694C212.05 30.0058 210.358 28.1994 210.447 26.1597C210.532 24.1285 212.364 22.5511 214.473 22.691C216.459 22.8225 218.05 24.5823 217.931 26.5117Z" fill="#6A7DF3"/>
<path d="M334.465 22.6782C336.501 22.6952 338.156 24.2938 338.169 26.2657C338.182 28.2417 336.336 30.0906 334.372 30.0694C332.36 30.0482 330.587 28.1951 330.663 26.1978C330.731 24.2726 332.475 22.6613 334.465 22.6782Z" fill="#6A7DF3"/>
<path d="M244.351 135.106C246.362 135.165 248.106 137.043 247.987 139.02C247.873 140.907 246.023 142.586 244.135 142.514C242.06 142.437 240.393 140.639 240.511 138.608C240.622 136.717 242.45 135.046 244.351 135.106Z" fill="#6A7DF3"/>
<path d="M247.992 48.9013C247.945 50.7713 246.142 52.5396 244.266 52.5481C242.242 52.5608 240.473 50.7713 240.507 48.7528C240.545 46.6962 242.306 45.0933 244.428 45.1866C246.464 45.2799 248.042 46.921 247.992 48.9013Z" fill="#6A7DF3"/>
<path d="M184.175 187.48C182.177 187.509 180.458 185.936 180.373 183.985C180.284 182.001 182.041 180.165 184.065 180.127C186.067 180.088 187.888 181.882 187.866 183.867C187.845 185.796 186.161 187.446 184.175 187.48Z" fill="#6A7DF3"/>
<path d="M33.7451 75.0565C31.7086 75.0141 29.9902 73.1907 30.0751 71.1722C30.1599 69.2258 31.874 67.6611 33.8851 67.6908C35.9259 67.7247 37.5509 69.3191 37.5594 71.2994C37.5722 73.3009 35.7435 75.0989 33.7451 75.0565Z" fill="#6A7DF3"/>
<path d="M187.866 228.727C187.909 230.664 186.271 232.373 184.294 232.454C182.172 232.543 180.407 230.923 180.373 228.862C180.344 226.882 182.168 225.059 184.162 225.08C186.072 225.101 187.824 226.823 187.866 228.727Z" fill="#6A7DF3"/>
<path d="M157.797 26.3674C157.759 28.3223 155.829 30.1626 153.911 30.0651C151.968 29.9676 150.3 28.2332 150.309 26.3081C150.317 24.2726 152.095 22.6189 154.199 22.6867C156.24 22.7546 157.835 24.3871 157.797 26.3674Z" fill="#6A7DF3"/>
<path d="M33.9276 202.601C35.9175 202.66 37.6655 204.543 37.5552 206.515C37.4534 208.372 35.5908 210.073 33.7197 210.018C31.8401 209.962 30.0751 208.173 30.0751 206.32C30.0793 204.378 31.9801 202.546 33.9276 202.601Z" fill="#6A7DF3"/>
<path d="M217.931 116.358C217.91 118.241 216.149 119.988 214.244 120.022C212.195 120.056 210.426 118.317 210.442 116.286C210.464 114.225 212.208 112.606 214.325 112.678C216.336 112.746 217.957 114.399 217.931 116.358Z" fill="#6A7DF3"/>
<path d="M157.802 71.3545C157.78 73.3517 155.922 75.1327 153.936 75.0564C151.98 74.9801 150.313 73.2669 150.313 71.3333C150.313 69.2979 152.078 67.6356 154.182 67.6907C156.21 67.7416 157.819 69.3742 157.802 71.3545Z" fill="#6A7DF3"/>
<path d="M214.265 202.601C216.242 202.643 218.02 204.535 217.931 206.49C217.846 208.326 215.967 210.056 214.108 210.018C212.207 209.975 210.451 208.215 210.442 206.345C210.434 204.39 212.305 202.559 214.265 202.601Z" fill="#6A7DF3"/>
<path d="M153.97 247.541C155.79 247.478 157.67 249.216 157.793 251.078C157.92 253.05 156.181 254.911 154.157 254.962C152.218 255.013 150.419 253.385 150.317 251.485C150.207 249.577 152.031 247.613 153.97 247.541Z" fill="#6A7DF3"/>
<path d="M0.0103033 228.514C0.158803 226.661 2.08081 224.982 3.93493 225.084C5.95877 225.194 7.64742 227.085 7.49892 229.074C7.34617 231.105 5.47932 232.623 3.37063 232.433C1.42317 232.255 -0.142439 230.435 0.0103033 228.514Z" fill="#6A7DF3"/>
<path d="M3.79916 135.11C5.81875 135.131 7.57953 136.959 7.49891 138.96C7.42679 140.851 5.61934 142.548 3.71006 142.522C1.75411 142.497 0.0315169 140.809 0.00605984 138.897C-0.0193972 136.92 1.81775 135.089 3.79916 135.11Z" fill="#6A7DF3"/>
<path d="M30.0751 26.2104C30.1345 24.2005 31.9759 22.5679 34.0549 22.6824C36.066 22.7926 37.6443 24.4973 37.5552 26.4606C37.4704 28.3603 35.6756 30.0777 33.7876 30.065C31.7765 30.0523 30.0199 28.2289 30.0751 26.2104Z" fill="#6A7DF3"/>
<path d="M338.169 161.295C338.182 163.292 336.374 165.031 334.329 164.984C332.377 164.941 330.672 163.237 330.659 161.329C330.651 159.446 332.373 157.69 334.299 157.627C336.327 157.555 338.156 159.289 338.169 161.295Z" fill="#6A7DF3"/>
<path d="M37.5594 116.333C37.5467 118.326 35.6883 120.099 33.6942 120.018C31.734 119.942 30.0666 118.228 30.0793 116.312C30.092 114.251 31.8274 112.614 33.9403 112.678C35.9684 112.733 37.5722 114.353 37.5594 116.333Z" fill="#6A7DF3"/>
<path d="M334.338 120.018C332.305 119.971 330.566 118.135 330.663 116.138C330.757 114.192 332.483 112.631 334.503 112.673C336.625 112.716 338.275 114.437 338.173 116.503C338.076 118.39 336.251 120.065 334.338 120.018Z" fill="#6A7DF3"/>
<path d="M247.992 228.888C247.945 230.915 246.137 232.543 244.041 232.445C242.039 232.352 240.452 230.664 240.507 228.697C240.562 226.793 242.315 225.092 244.237 225.075C246.218 225.067 248.038 226.907 247.992 228.888Z" fill="#6A7DF3"/>
<path d="M3.7822 277.462C1.83049 277.475 0.0612275 275.817 0.0103134 273.926C-0.0448435 271.92 1.71169 270.113 3.73553 270.096C5.78058 270.08 7.52863 271.831 7.49893 273.875C7.47347 275.783 5.75088 277.445 3.7822 277.462Z" fill="#6A7DF3"/>
<path d="M33.83 164.988C31.7934 164.992 30.0284 163.22 30.0751 161.218C30.1217 159.327 31.8825 157.631 33.8088 157.618C35.8284 157.605 37.6103 159.408 37.5594 161.401C37.5085 163.317 35.7774 164.979 33.83 164.988Z" fill="#6A7DF3"/>
<path d="M154.161 202.597C156.155 202.665 157.903 204.543 157.793 206.507C157.691 208.377 155.85 210.06 153.962 210.013C152.074 209.963 150.304 208.177 150.309 206.324C150.321 204.395 152.243 202.533 154.161 202.597Z" fill="#6A7DF3"/>
<path d="M124.024 135.101C126.044 135.118 127.8 136.937 127.733 138.939C127.665 140.834 125.887 142.526 123.969 142.518C122.022 142.509 120.291 140.826 120.257 138.905C120.227 136.925 122.051 135.084 124.024 135.101Z" fill="#6A7DF3"/>
<path d="M244.198 97.5309C242.175 97.5012 240.435 95.6863 240.507 93.6763C240.575 91.7808 242.353 90.1143 244.283 90.1355C246.316 90.1567 248.081 91.9801 247.992 93.9604C247.907 95.8093 246.048 97.5606 244.198 97.5309Z" fill="#6A7DF3"/>
<path d="M157.797 161.345C157.776 163.339 155.935 165.064 153.911 164.984C151.955 164.907 150.287 163.19 150.309 161.273C150.33 159.374 152.061 157.656 153.987 157.622C156.011 157.584 157.819 159.357 157.797 161.345Z" fill="#6A7DF3"/>
<path d="M214.18 157.622C216.107 157.618 217.872 159.302 217.931 161.197C217.995 163.169 216.2 164.984 214.185 164.98C212.216 164.98 210.502 163.347 210.442 161.418C210.383 159.42 212.148 157.627 214.18 157.622Z" fill="#6A7DF3"/>
<path d="M97.6677 161.413C97.6083 163.428 95.7669 165.094 93.7261 164.975C91.7575 164.861 90.1537 163.144 90.2088 161.206C90.264 159.306 92.0248 157.606 93.9425 157.61C95.9664 157.61 97.7271 159.408 97.6677 161.413Z" fill="#6A7DF3"/>
<path d="M157.797 116.363C157.772 118.347 155.888 120.107 153.898 120.018C151.934 119.929 150.283 118.212 150.309 116.278C150.334 114.23 152.103 112.597 154.212 112.678C156.236 112.758 157.827 114.391 157.797 116.363Z" fill="#6A7DF3"/>
<path d="M33.7621 247.537C35.6926 247.491 37.5679 249.361 37.5552 251.324C37.5467 253.236 35.8369 254.928 33.8767 254.962C31.9334 254.996 30.1599 253.355 30.0751 251.451C29.9987 249.526 31.8231 247.584 33.7621 247.537Z" fill="#6A7DF3"/>
<path d="M334.482 254.962C332.543 254.996 330.748 253.347 330.663 251.451C330.578 249.547 332.437 247.58 334.363 247.537C336.285 247.495 338.177 249.378 338.169 251.32C338.16 253.211 336.421 254.928 334.482 254.962Z" fill="#6A7DF3"/>
<path d="M244.266 187.475C242.259 187.484 240.575 185.902 240.511 183.947C240.448 181.933 242.183 180.144 244.224 180.122C246.222 180.101 248.038 181.92 247.996 183.896C247.949 185.826 246.235 187.467 244.266 187.475Z" fill="#6A7DF3"/>
<path d="M187.866 273.786C187.879 275.698 186.186 277.407 184.23 277.458C182.172 277.513 180.361 275.787 180.373 273.794C180.386 271.869 182.062 270.169 184.014 270.096C186.008 270.024 187.849 271.788 187.866 273.786Z" fill="#6A7DF3"/>
<path d="M123.948 180.122C125.98 180.101 127.758 181.861 127.732 183.871C127.711 185.817 126.04 187.45 124.045 187.475C121.958 187.505 120.223 185.804 120.257 183.765C120.295 181.869 122.039 180.143 123.948 180.122Z" fill="#6A7DF3"/>
<path d="M127.737 228.833C127.724 230.8 126.091 232.416 124.071 232.454C121.958 232.492 120.235 230.826 120.261 228.769C120.286 226.852 121.988 225.16 123.931 225.114C125.955 225.067 127.745 226.814 127.737 228.833Z" fill="#6A7DF3"/>
<path d="M67.603 48.723C67.6497 50.716 65.8549 52.5521 63.8651 52.5479C61.9558 52.5437 60.1908 50.8305 60.1441 48.9308C60.0932 46.8784 61.7776 45.1907 63.8863 45.1865C65.9313 45.1822 67.5606 46.73 67.603 48.723Z" fill="#6A7DF3"/>
<path d="M334.478 202.597C336.463 202.631 338.245 204.497 338.169 206.464C338.097 208.313 336.255 210.035 334.372 210.013C332.492 209.992 330.685 208.215 330.663 206.371C330.642 204.45 332.547 202.563 334.478 202.597Z" fill="#6A7DF3"/>
<path d="M217.927 251.209C217.978 253.079 216.268 254.873 214.359 254.958C212.314 255.047 210.472 253.351 210.443 251.354C210.413 249.407 212.28 247.524 214.223 247.541C216.052 247.554 217.88 249.365 217.927 251.209Z" fill="#6A7DF3"/>
<path d="M97.6678 71.4053C97.6211 73.4238 95.7627 75.1581 93.7644 75.0478C91.7872 74.9418 90.1834 73.2414 90.2089 71.2781C90.2386 69.196 91.9654 67.6101 94.108 67.6991C96.1488 67.7839 97.7144 69.4123 97.6678 71.4053Z" fill="#6A7DF3"/>
<path d="M334.159 75.0479C332.114 74.8825 330.481 72.9785 330.672 70.9855C330.867 68.9459 332.738 67.4914 334.885 67.7204C336.875 67.9324 338.36 69.7346 338.152 71.6979C337.957 73.5765 336.022 75.2006 334.159 75.0479Z" fill="#6A7DF3"/>
<path d="M123.956 277.458C121.979 277.441 120.278 275.783 120.257 273.858C120.235 271.861 122.034 270.067 124.041 270.092C126.078 270.118 127.8 271.911 127.728 273.934C127.665 275.876 125.951 277.475 123.956 277.458Z" fill="#6A7DF3"/>
<path d="M63.8566 142.522C61.9133 142.509 60.178 140.822 60.1441 138.909C60.1059 136.929 61.9176 135.093 63.899 135.101C65.9143 135.11 67.6709 136.925 67.6072 138.93C67.5436 140.834 65.7658 142.539 63.8566 142.522Z" fill="#6A7DF3"/>
<path d="M90.2089 26.2062C90.2683 24.2599 91.9654 22.6655 93.968 22.6782C96.0852 22.6909 97.7569 24.3998 97.6635 26.4564C97.5744 28.3604 95.7882 30.0778 93.9086 30.0608C91.889 30.0481 90.1495 28.2332 90.2089 26.2062Z" fill="#6A7DF3"/>
<path d="M278.039 116.325C278.035 118.233 276.33 119.963 274.395 120.018C272.362 120.077 270.572 118.343 270.576 116.32C270.58 114.23 272.273 112.623 274.408 112.674C276.427 112.724 278.044 114.349 278.039 116.325Z" fill="#6A7DF3"/>
<path d="M97.6678 116.414C97.6169 118.313 95.8603 120.018 93.9425 120.026C91.9102 120.035 90.1537 118.245 90.2046 116.227C90.2598 114.17 92.0333 112.567 94.1377 112.673C96.1658 112.775 97.7229 114.425 97.6678 116.414Z" fill="#6A7DF3"/>
<path d="M67.6072 228.905C67.5521 230.966 65.787 232.551 63.6614 232.45C61.6672 232.352 60.0804 230.66 60.1441 228.693C60.2077 226.806 61.9855 225.088 63.882 225.084C65.8804 225.076 67.6624 226.903 67.6072 228.905Z" fill="#6A7DF3"/>
<path d="M274.297 164.984C272.333 164.984 270.623 163.343 270.576 161.413C270.525 159.408 272.282 157.614 274.306 157.614C276.325 157.614 278.095 159.412 278.039 161.413C277.984 163.322 276.245 164.984 274.297 164.984Z" fill="#6A7DF3"/>
<path d="M270.576 71.1637C270.661 69.0986 272.439 67.5593 274.586 67.6992C276.584 67.8307 278.145 69.5565 278.039 71.5199C277.933 73.4153 276.109 75.1073 274.217 75.0522C272.167 74.997 270.491 73.2076 270.576 71.1637Z" fill="#6A7DF3"/>
<path d="M274.365 247.537C276.317 247.575 278.112 249.492 278.035 251.447C277.959 253.351 276.185 254.992 274.238 254.962C272.269 254.933 270.585 253.258 270.572 251.328C270.559 249.378 272.439 247.499 274.365 247.537Z" fill="#6A7DF3"/>
<path d="M124.012 52.5479C122.098 52.5649 120.329 50.8687 120.261 48.9605C120.189 46.9081 121.873 45.1992 123.982 45.1907C126.031 45.178 127.673 46.7173 127.728 48.7018C127.788 50.6821 126.001 52.5309 124.012 52.5479Z" fill="#6A7DF3"/>
<path d="M278.039 26.2783C278.052 28.2502 276.194 30.1032 274.242 30.0651C272.282 30.0227 270.61 28.3477 270.576 26.3971C270.542 24.3235 272.231 22.6655 274.352 22.6867C276.393 22.7079 278.022 24.298 278.039 26.2783Z" fill="#6A7DF3"/>
<path d="M247.987 273.879C247.953 275.774 246.205 277.445 244.254 277.458C242.187 277.471 240.448 275.724 240.507 273.697C240.567 271.759 242.268 270.105 244.228 270.092C246.248 270.08 248.025 271.869 247.987 273.879Z" fill="#6A7DF3"/>
<path d="M308.1 93.7442C308.129 95.7032 306.288 97.5521 304.319 97.5309C302.397 97.5139 300.662 95.805 300.624 93.8926C300.586 91.9165 302.397 90.1101 304.4 90.1313C306.356 90.1483 308.07 91.8275 308.1 93.7442Z" fill="#6A7DF3"/>
<path d="M124.062 90.127C126.018 90.1567 127.716 91.8402 127.733 93.7654C127.749 95.7372 125.904 97.5648 123.935 97.5266C121.928 97.4927 120.172 95.6396 120.261 93.6551C120.346 91.7808 122.157 90.0974 124.062 90.127Z" fill="#6A7DF3"/>
<path d="M304.379 225.109C306.403 225.114 308.164 226.92 308.1 228.922C308.036 230.872 306.348 232.462 304.341 232.454C302.325 232.445 300.666 230.855 300.62 228.888C300.577 226.886 302.351 225.105 304.379 225.109Z" fill="#6A7DF3"/>
<path d="M97.6635 251.256C97.6932 253.181 96.0385 254.886 94.0698 254.958C92.0163 255.03 90.2131 253.33 90.2046 251.315C90.2004 249.467 91.9442 247.643 93.811 247.554C95.733 247.457 97.6338 249.289 97.6635 251.256Z" fill="#6A7DF3"/>
<path d="M67.6072 183.918C67.5521 185.966 65.7616 187.581 63.6741 187.467C61.6715 187.357 60.0931 185.677 60.1483 183.718C60.2077 181.738 62.1085 180.004 64.0899 180.127C66.0416 180.245 67.6581 181.984 67.6072 183.918Z" fill="#6A7DF3"/>
<path d="M304.281 142.522C302.325 142.48 300.633 140.784 300.624 138.854C300.616 136.87 302.457 135.059 304.438 135.101C306.449 135.144 308.193 136.997 308.1 138.99C308.011 140.873 306.186 142.56 304.281 142.522Z" fill="#6A7DF3"/>
<path d="M304.366 180.122C306.398 180.131 308.159 181.924 308.104 183.926C308.049 185.864 306.348 187.479 304.358 187.475C302.266 187.475 300.569 185.762 300.632 183.71C300.688 181.806 302.448 180.114 304.366 180.122Z" fill="#6A7DF3"/>
<path d="M304.269 277.458C302.3 277.416 300.62 275.732 300.624 273.803C300.628 271.788 302.44 270.037 304.455 270.092C306.5 270.152 308.197 271.967 308.1 273.985C308.007 275.897 306.237 277.5 304.269 277.458Z" fill="#6A7DF3"/>
<path d="M97.6678 206.35C97.6593 208.232 95.924 209.962 94.002 210.009C92.0206 210.056 90.1707 208.241 90.2046 206.277C90.2386 204.412 91.9993 202.648 93.8789 202.605C95.8561 202.559 97.6763 204.361 97.6678 206.35Z" fill="#6A7DF3"/>
<path d="M67.6072 93.7611C67.6284 95.7456 65.7998 97.569 63.8226 97.5309C61.9091 97.497 60.1738 95.7711 60.1483 93.8756C60.1186 91.8953 61.9303 90.1101 63.9372 90.1355C65.8931 90.1652 67.5818 91.8317 67.6072 93.7611Z" fill="#6A7DF3"/>
<path d="M67.603 273.735C67.6454 275.673 66.0077 277.377 64.0348 277.458C61.9685 277.543 60.1611 275.863 60.1441 273.849C60.1271 271.911 61.7564 270.207 63.7208 270.101C65.7319 269.995 67.5606 271.704 67.603 273.735Z" fill="#6A7DF3"/>
<path d="M308.096 49.0198C307.985 50.8984 306.135 52.603 304.264 52.5437C302.249 52.4801 300.526 50.6312 300.624 48.634C300.726 46.5901 302.542 45.0423 304.663 45.1992C306.708 45.3518 308.214 47.0268 308.096 49.0198Z" fill="#6A7DF3"/>
<path d="M278.039 206.311C278.052 208.164 276.296 209.958 274.408 210.013C272.418 210.073 270.568 208.283 270.576 206.316C270.585 204.429 272.299 202.673 274.2 202.605C276.156 202.533 278.022 204.335 278.039 206.311Z" fill="#6A7DF3"/>
<path d="M3.8815 0.0911043C5.92655 0.112307 7.5558 1.68976 7.58126 3.67005C7.60671 5.64611 5.75683 7.49495 3.78816 7.46527C1.87463 7.43559 0.113856 5.697 0.0841561 3.80575C0.0586991 1.75337 1.78129 0.0656615 3.8815 0.0911043Z" fill="#6A7DF3"/>
<path d="M184.256 7.45498C182.359 7.49314 180.535 5.79272 180.454 3.90571C180.365 1.85757 182.041 0.123219 184.141 0.0892952C186.178 0.0553715 187.862 1.59466 187.943 3.56223C188.023 5.52133 186.233 7.41257 184.256 7.45498Z" fill="#6A7DF3"/>
<path d="M248.068 3.80812C248.021 5.67816 246.218 7.44644 244.343 7.45492C242.319 7.46764 240.55 5.67816 240.584 3.6597C240.622 1.60308 242.383 0.000183895 244.504 0.0934741C246.541 0.182524 248.119 1.82358 248.068 3.80812Z" fill="#6A7DF3"/>
<path d="M67.6836 3.62585C67.7303 5.61887 65.9356 7.45499 63.9457 7.45075C62.0364 7.44651 60.2714 5.73336 60.2247 3.83363C60.1738 1.78125 61.8582 0.0935436 63.9669 0.0893031C66.0119 0.0850627 67.6369 1.63283 67.6836 3.62585Z" fill="#6A7DF3"/>
<path d="M124.092 7.4506C122.179 7.46756 120.409 5.77138 120.342 3.86317C120.269 1.81079 121.954 0.101882 124.062 0.093401C126.112 0.0806796 127.754 1.61997 127.809 3.6045C127.864 5.5848 126.078 7.43364 124.092 7.4506Z" fill="#6A7DF3"/>
<path d="M308.181 48.6468C308.21 50.6058 306.369 52.4547 304.4 52.4335C302.478 52.4165 300.743 50.7076 300.705 48.7952C300.666 46.8191 302.478 45.0127 304.481 45.0339C306.432 45.0551 308.151 46.7301 308.181 48.6468Z" fill="#6A7DF3"/>
<path d="M304.46 180.012C306.483 180.016 308.244 181.823 308.181 183.824C308.117 185.775 306.428 187.365 304.421 187.357C302.406 187.348 300.747 185.758 300.7 183.79C300.654 181.789 302.427 180.008 304.46 180.012Z" fill="#6A7DF3"/>
<path d="M304.362 97.4248C302.406 97.3824 300.713 95.6862 300.705 93.7568C300.696 91.7723 302.537 89.9616 304.519 90.004C306.53 90.0464 308.274 91.8995 308.18 93.8925C308.091 95.7753 306.263 97.463 304.362 97.4248Z" fill="#6A7DF3"/>
<path d="M304.443 135.025C306.475 135.034 308.236 136.827 308.181 138.829C308.125 140.767 306.424 142.382 304.434 142.378C302.342 142.378 300.645 140.665 300.709 138.612C300.764 136.709 302.525 135.017 304.443 135.025Z" fill="#6A7DF3"/>
<path d="M304.349 232.361C302.381 232.318 300.7 230.635 300.705 228.705C300.709 226.691 302.521 224.94 304.536 224.995C306.581 225.054 308.278 226.869 308.181 228.888C308.083 230.8 306.318 232.403 304.349 232.361Z" fill="#6A7DF3"/>
<path d="M308.104 3.74026C308.134 5.69935 306.292 7.54819 304.324 7.52699C302.402 7.51003 300.666 5.80112 300.628 3.88867C300.59 1.91262 302.402 0.10618 304.404 0.127382C306.356 0.148584 308.074 1.82357 308.104 3.74026Z" fill="#6A7DF3"/>
<path d="M364.916 93.6127C364.945 95.5718 363.104 97.4206 361.135 97.3994C359.213 97.3825 357.478 95.6736 357.44 93.7611C357.402 91.7851 359.213 89.9786 361.216 89.9998C363.168 90.021 364.886 91.696 364.916 93.6127Z" fill="#6A7DF3"/>
<path d="M361.195 224.982C363.219 224.986 364.979 226.793 364.916 228.794C364.852 230.745 363.163 232.335 361.157 232.327C359.141 232.318 357.482 230.728 357.436 228.76C357.393 226.759 359.167 224.974 361.195 224.982Z" fill="#6A7DF3"/>
<path d="M361.097 142.391C359.141 142.348 357.448 140.652 357.44 138.723C357.431 136.738 359.273 134.927 361.254 134.97C363.265 135.012 365.009 136.865 364.916 138.858C364.827 140.741 363.002 142.433 361.097 142.391Z" fill="#6A7DF3"/>
<path d="M361.178 179.995C363.21 180.004 364.971 181.797 364.916 183.799C364.861 185.737 363.159 187.352 361.169 187.348C359.078 187.348 357.381 185.635 357.444 183.582C357.504 181.674 359.26 179.987 361.178 179.995Z" fill="#6A7DF3"/>
<path d="M361.084 277.326C359.116 277.284 357.436 275.601 357.44 273.671C357.444 271.657 359.256 269.906 361.271 269.961C363.316 270.02 365.013 271.835 364.916 273.853C364.818 275.77 363.053 277.373 361.084 277.326Z" fill="#6A7DF3"/>
<path d="M364.911 48.8927C364.801 50.7712 362.951 52.4759 361.08 52.4165C359.065 52.3529 357.342 50.5041 357.44 48.5068C357.542 46.4629 359.358 44.9152 361.479 45.072C363.524 45.2247 365.026 46.8954 364.911 48.8927Z" fill="#6A7DF3"/>
<path d="M364.996 48.5153C365.026 50.4744 363.185 52.3233 361.216 52.3021C359.294 52.2851 357.559 50.5762 357.521 48.6638C357.482 46.6877 359.294 44.8813 361.297 44.9025C363.248 44.9237 364.962 46.5987 364.996 48.5153Z" fill="#6A7DF3"/>
<path d="M361.275 179.885C363.299 179.889 365.06 181.695 364.996 183.697C364.933 185.648 363.244 187.238 361.237 187.229C359.222 187.221 357.563 185.631 357.516 183.663C357.47 181.662 359.243 179.876 361.275 179.885Z" fill="#6A7DF3"/>
<path d="M361.178 97.2934C359.222 97.251 357.529 95.5548 357.521 93.6254C357.512 91.6408 359.353 89.8302 361.335 89.8726C363.346 89.915 365.09 91.768 364.996 93.7611C364.907 95.6438 363.079 97.3358 361.178 97.2934Z" fill="#6A7DF3"/>
<path d="M361.258 134.898C363.291 134.906 365.052 136.7 364.996 138.701C364.941 140.639 363.24 142.255 361.25 142.251C359.158 142.251 357.461 140.538 357.525 138.485C357.58 136.581 359.341 134.889 361.258 134.898Z" fill="#6A7DF3"/>
<path d="M361.161 232.233C359.192 232.191 357.512 230.507 357.516 228.578C357.521 226.564 359.332 224.813 361.348 224.868C363.393 224.927 365.09 226.742 364.992 228.76C364.899 230.673 363.13 232.276 361.161 232.233Z" fill="#6A7DF3"/>
<path d="M364.92 3.61306C364.95 5.57215 363.108 7.42099 361.14 7.39979C359.218 7.38283 357.482 5.67392 357.444 3.76147C357.406 1.78542 359.218 -0.0210175 361.22 0.0001848C363.172 0.0171466 364.89 1.69637 364.92 3.61306Z" fill="#6A7DF3"/>
</svg>
