<svg width="443" height="380" viewBox="0 0 443 380" fill="none" xmlns="http://www.w3.org/2000/svg">
<path d="M9.08616 128.168C9.14268 130.858 6.93335 133.397 4.53905 133.385C2.23724 133.38 0.0741497 131.015 0.012494 128.447C-0.0491617 125.763 2.15503 123.259 4.56474 123.264C6.93335 123.27 9.02964 125.543 9.08616 128.168Z" fill="#FB675F"/>
<path d="M259.378 102.663C256.906 102.669 254.79 100.24 254.841 97.4638C254.892 94.7569 256.886 92.6064 259.352 92.5948C261.803 92.5832 263.848 94.7453 263.91 97.4175C263.976 100.13 261.788 102.663 259.378 102.663Z" fill="#FB675F"/>
<path d="M4.60585 61.8267C7.08236 61.8557 9.05534 64.012 9.08617 66.719C9.117 69.4202 6.87684 71.9476 4.49281 71.907C2.17558 71.8664 0.0433211 69.4898 0.00735518 66.9045C-0.0286107 64.1048 2.05741 61.7977 4.60585 61.8267Z" fill="#FB675F"/>
<path d="M223.037 71.9012C220.74 71.9534 218.531 69.629 218.433 67.0495C218.325 64.2497 220.355 61.8789 222.898 61.8325C225.364 61.7862 227.404 63.8903 227.502 66.58C227.599 69.2522 225.426 71.8433 223.037 71.9012Z" fill="#FB675F"/>
<path d="M227.502 128.406C227.445 130.956 225.277 133.362 223.001 133.391C220.586 133.42 218.387 130.933 218.428 128.22C218.469 125.531 220.766 123.143 223.186 123.282C225.549 123.409 227.558 125.797 227.502 128.406Z" fill="#FB675F"/>
<path d="M4.48767 246.285C6.93335 246.233 9.11699 248.662 9.08616 251.404C9.06047 254.058 7.03611 256.296 4.61611 256.342C2.21154 256.388 0.115238 254.209 0.0124783 251.566C-0.0902815 248.853 2.04198 246.337 4.48767 246.285Z" fill="#FB675F"/>
<path d="M227.502 189.896C227.466 192.469 225.333 194.84 223.016 194.881C220.545 194.927 218.377 192.498 218.433 189.745C218.485 187.056 220.797 184.615 223.176 184.743C225.493 184.87 227.538 187.299 227.502 189.896Z" fill="#FB675F"/>
<path d="M263.909 36.3042C263.766 38.8489 261.484 41.2428 259.27 41.1675C256.788 41.0805 254.738 38.6112 254.846 35.8231C254.949 33.0466 257.168 30.8904 259.722 31.0816C262.127 31.2613 264.053 33.6668 263.909 36.3042Z" fill="#FB675F"/>
<path d="M405.029 31.0644C407.495 31.0876 409.499 33.2729 409.515 35.9682C409.53 38.6694 407.295 41.1967 404.916 41.1677C402.481 41.1387 400.333 38.6057 400.426 35.8755C400.508 33.2439 402.62 31.0412 405.029 31.0644Z" fill="#FB675F"/>
<path d="M295.904 184.749C298.339 184.83 300.451 187.398 300.307 190.099C300.168 192.678 297.928 194.974 295.642 194.875C293.129 194.771 291.11 192.313 291.254 189.537C291.387 186.951 293.602 184.668 295.904 184.749Z" fill="#FB675F"/>
<path d="M300.312 66.9103C300.256 69.4665 298.072 71.8836 295.801 71.8952C293.35 71.9126 291.208 69.4665 291.249 66.7074C291.295 63.8962 293.427 61.7052 295.996 61.8327C298.462 61.9602 300.374 64.2034 300.312 66.9103Z" fill="#FB675F"/>
<path d="M223.032 256.342C220.612 256.383 218.531 254.232 218.428 251.566C218.32 248.853 220.447 246.343 222.898 246.291C225.323 246.239 227.527 248.691 227.502 251.403C227.476 254.041 225.436 256.296 223.032 256.342Z" fill="#FB675F"/>
<path d="M40.8646 102.664C38.3983 102.606 36.3175 100.113 36.4202 97.354C36.523 94.6934 38.5987 92.5545 41.0341 92.5951C43.5055 92.6414 45.4733 94.8209 45.4836 97.5279C45.499 100.264 43.2846 102.722 40.8646 102.664Z" fill="#FB675F"/>
<path d="M227.502 312.725C227.553 315.374 225.57 317.71 223.176 317.82C220.607 317.942 218.469 315.728 218.428 312.911C218.392 310.204 220.601 307.711 223.016 307.74C225.328 307.769 227.45 310.123 227.502 312.725Z" fill="#FB675F"/>
<path d="M191.089 36.1074C191.043 38.7796 188.705 41.2952 186.382 41.1619C184.029 41.0286 182.01 38.6578 182.02 36.0262C182.031 33.2439 184.183 30.9833 186.732 31.076C189.203 31.1687 191.135 33.4004 191.089 36.1074Z" fill="#FB675F"/>
<path d="M41.0855 277.012C43.4952 277.094 45.6121 279.667 45.4785 282.362C45.3552 284.901 43.0996 287.226 40.8338 287.15C38.5576 287.075 36.4202 284.629 36.4202 282.096C36.4254 279.441 38.7272 276.937 41.0855 277.012Z" fill="#FB675F"/>
<path d="M263.91 159.122C263.884 161.696 261.752 164.084 259.445 164.13C256.963 164.177 254.82 161.8 254.841 159.023C254.867 156.206 256.978 153.992 259.542 154.091C261.978 154.183 263.94 156.444 263.91 159.122Z" fill="#FB675F"/>
<path d="M191.094 97.6031C191.068 100.333 188.818 102.768 186.413 102.664C184.045 102.559 182.026 100.217 182.026 97.5741C182.026 94.7917 184.163 92.5195 186.711 92.5948C189.167 92.6644 191.115 94.8961 191.094 97.6031Z" fill="#FB675F"/>
<path d="M259.47 277.012C261.865 277.07 264.017 279.656 263.909 282.328C263.807 284.838 261.531 287.203 259.28 287.151C256.978 287.093 254.851 284.687 254.841 282.131C254.831 279.459 257.097 276.954 259.47 277.012Z" fill="#FB675F"/>
<path d="M186.454 338.444C188.659 338.357 190.935 340.734 191.084 343.279C191.238 345.974 189.131 348.519 186.68 348.589C184.332 348.658 182.154 346.432 182.031 343.835C181.897 341.227 184.106 338.543 186.454 338.444Z" fill="#FB675F"/>
<path d="M0.0124771 312.435C0.192306 309.902 2.51981 307.607 4.76511 307.746C7.21593 307.897 9.26085 310.482 9.08102 313.201C8.89605 315.977 6.63534 318.052 4.08176 317.791C1.72343 317.548 -0.17249 315.061 0.0124771 312.435Z" fill="#FB675F"/>
<path d="M4.60069 184.754C7.04636 184.783 9.17862 187.282 9.081 190.018C8.99366 192.603 6.80488 194.922 4.49279 194.887C2.12418 194.852 0.0381636 192.545 0.00733571 189.931C-0.0234921 187.23 2.20125 184.725 4.60069 184.754Z" fill="#FB675F"/>
<path d="M36.4202 35.8927C36.4922 33.1452 38.7221 30.9135 41.2397 31.07C43.6751 31.2207 45.5864 33.5509 45.4785 36.2347C45.3757 38.8316 43.2024 41.1792 40.916 41.1618C38.4806 41.1444 36.3534 38.6519 36.4202 35.8927Z" fill="#FB675F"/>
<path d="M409.515 220.548C409.53 223.278 407.341 225.655 404.865 225.591C402.501 225.533 400.436 223.203 400.42 220.595C400.41 218.021 402.496 215.621 404.829 215.534C407.285 215.436 409.499 217.807 409.515 220.548Z" fill="#FB675F"/>
<path d="M45.4836 159.087C45.4682 161.812 43.2178 164.235 40.8029 164.125C38.4292 164.02 36.41 161.678 36.4254 159.058C36.4408 156.241 38.5422 154.004 41.1009 154.091C43.5569 154.166 45.499 156.38 45.4836 159.087Z" fill="#FB675F"/>
<path d="M404.875 164.124C402.414 164.061 400.307 161.551 400.426 158.821C400.539 156.16 402.63 154.027 405.076 154.085C407.645 154.143 409.643 156.496 409.52 159.319C409.402 161.899 407.192 164.188 404.875 164.124Z" fill="#FB675F"/>
<path d="M300.312 312.945C300.256 315.716 298.067 317.942 295.529 317.809C293.103 317.681 291.182 315.374 291.249 312.685C291.315 310.082 293.437 307.758 295.765 307.734C298.164 307.723 300.369 310.239 300.312 312.945Z" fill="#FB675F"/>
<path d="M4.58014 379.345C2.21666 379.362 0.0741131 377.096 0.0124571 374.511C-0.0543369 371.769 2.0728 369.3 4.52362 369.277C7.00014 369.254 9.117 371.647 9.08103 374.441C9.0502 377.05 6.96417 379.322 4.58014 379.345Z" fill="#FB675F"/>
<path d="M40.9673 225.597C38.5011 225.603 36.3637 223.18 36.4202 220.444C36.4767 217.859 38.609 215.54 40.9416 215.523C43.3873 215.505 45.5452 217.969 45.4836 220.693C45.4219 223.313 43.3256 225.585 40.9673 225.597Z" fill="#FB675F"/>
<path d="M186.686 277.007C189.1 277.1 191.217 279.668 191.084 282.351C190.96 284.908 188.731 287.209 186.444 287.145C184.158 287.075 182.015 284.635 182.02 282.102C182.036 279.465 184.363 276.92 186.686 277.007Z" fill="#FB675F"/>
<path d="M150.191 184.743C152.636 184.766 154.763 187.253 154.681 189.989C154.599 192.58 152.446 194.893 150.124 194.881C147.765 194.869 145.669 192.568 145.628 189.942C145.592 187.235 147.801 184.72 150.191 184.743Z" fill="#FB675F"/>
<path d="M295.719 133.385C293.268 133.345 291.161 130.864 291.249 128.116C291.331 125.525 293.484 123.247 295.821 123.276C298.283 123.305 300.42 125.798 300.312 128.505C300.209 131.032 297.959 133.426 295.719 133.385Z" fill="#FB675F"/>
<path d="M191.089 220.618C191.063 223.342 188.833 225.701 186.383 225.591C184.014 225.487 181.995 223.139 182.02 220.519C182.046 217.922 184.142 215.575 186.475 215.528C188.926 215.476 191.115 217.899 191.089 220.618Z" fill="#FB675F"/>
<path d="M259.367 215.528C261.7 215.522 263.838 217.824 263.91 220.415C263.987 223.11 261.813 225.591 259.373 225.585C256.989 225.585 254.913 223.354 254.841 220.716C254.769 217.986 256.906 215.534 259.367 215.528Z" fill="#FB675F"/>
<path d="M118.273 220.71C118.201 223.464 115.972 225.742 113.5 225.579C111.116 225.423 109.174 223.075 109.241 220.426C109.308 217.83 111.44 215.505 113.762 215.511C116.213 215.511 118.345 217.969 118.273 220.71Z" fill="#FB675F"/>
<path d="M191.089 159.128C191.058 161.84 188.777 164.246 186.367 164.124C183.988 164.003 181.99 161.655 182.02 159.012C182.051 156.212 184.194 153.98 186.747 154.091C189.198 154.201 191.125 156.432 191.089 159.128Z" fill="#FB675F"/>
<path d="M40.8851 338.439C43.2229 338.375 45.4939 340.931 45.4785 343.615C45.4682 346.229 43.3976 348.542 41.0239 348.588C38.6707 348.635 36.523 346.391 36.4202 343.789C36.3277 341.157 38.5371 338.502 40.8851 338.439Z" fill="#FB675F"/>
<path d="M405.05 348.588C402.702 348.635 400.528 346.38 400.426 343.789C400.323 341.186 402.573 338.497 404.906 338.439C407.233 338.381 409.525 340.954 409.515 343.609C409.504 346.194 407.398 348.542 405.05 348.588Z" fill="#FB675F"/>
<path d="M295.801 256.336C293.371 256.348 291.331 254.186 291.254 251.513C291.177 248.76 293.278 246.314 295.75 246.285C298.17 246.256 300.369 248.743 300.317 251.444C300.261 254.081 298.185 256.325 295.801 256.336Z" fill="#FB675F"/>
<path d="M227.502 374.319C227.517 376.934 225.467 379.27 223.098 379.339C220.607 379.415 218.413 377.055 218.428 374.331C218.443 371.699 220.473 369.375 222.836 369.276C225.251 369.178 227.481 371.589 227.502 374.319Z" fill="#FB675F"/>
<path d="M150.098 246.285C152.559 246.256 154.712 248.661 154.681 251.409C154.655 254.069 152.631 256.301 150.216 256.336C147.688 256.376 145.587 254.052 145.628 251.264C145.674 248.673 147.786 246.314 150.098 246.285Z" fill="#FB675F"/>
<path d="M154.686 312.87C154.671 315.56 152.693 317.768 150.247 317.82C147.688 317.873 145.602 315.594 145.633 312.783C145.664 310.163 147.724 307.85 150.077 307.786C152.528 307.723 154.697 310.111 154.686 312.87Z" fill="#FB675F"/>
<path d="M81.8656 66.6667C81.9221 69.391 79.7488 71.9008 77.339 71.895C75.027 71.8892 72.8895 69.5475 72.833 66.9507C72.7714 64.1453 74.8112 61.8383 77.3647 61.8325C79.8413 61.8267 81.8142 63.9424 81.8656 66.6667Z" fill="#FB675F"/>
<path d="M405.045 277.006C407.449 277.053 409.607 279.603 409.515 282.293C409.427 284.821 407.197 287.174 404.916 287.145C402.64 287.116 400.451 284.687 400.426 282.166C400.4 279.54 402.707 276.96 405.045 277.006Z" fill="#FB675F"/>
<path d="M263.904 343.459C263.966 346.015 261.895 348.467 259.583 348.583C257.107 348.705 254.877 346.386 254.841 343.656C254.805 340.995 257.066 338.421 259.419 338.444C261.633 338.462 263.848 340.937 263.904 343.459Z" fill="#FB675F"/>
<path d="M118.273 97.6725C118.217 100.432 115.966 102.802 113.546 102.652C111.152 102.507 109.21 100.182 109.241 97.4986C109.277 94.6526 111.368 92.4847 113.963 92.6064C116.434 92.7224 118.33 94.9482 118.273 97.6725Z" fill="#FB675F"/>
<path d="M404.659 102.652C402.183 102.426 400.205 99.8231 400.436 97.0987C400.672 94.3105 402.938 92.3222 405.538 92.6352C407.948 92.925 409.746 95.3886 409.494 98.0725C409.258 100.64 406.915 102.861 404.659 102.652Z" fill="#FB675F"/>
<path d="M150.108 379.339C147.714 379.316 145.654 377.05 145.628 374.418C145.602 371.688 147.781 369.236 150.211 369.271C152.677 369.305 154.763 371.757 154.676 374.522C154.599 377.177 152.523 379.362 150.108 379.339Z" fill="#FB675F"/>
<path d="M77.3288 194.887C74.9756 194.869 72.8742 192.562 72.8331 189.948C72.7869 187.241 74.9808 184.731 77.3802 184.743C79.8207 184.754 81.9478 187.235 81.8708 189.977C81.7937 192.58 79.6409 194.91 77.3288 194.887Z" fill="#FB675F"/>
<path d="M109.241 35.8869C109.313 33.2264 111.368 31.0469 113.793 31.0643C116.357 31.0817 118.381 33.4176 118.268 36.2289C118.16 38.8315 115.997 41.179 113.721 41.1558C111.275 41.1384 109.169 38.6576 109.241 35.8869Z" fill="#FB675F"/>
<path d="M336.699 159.076C336.694 161.684 334.629 164.049 332.286 164.124C329.825 164.206 327.656 161.835 327.662 159.07C327.667 156.212 329.717 154.015 332.301 154.085C334.747 154.154 336.704 156.374 336.699 159.076Z" fill="#FB675F"/>
<path d="M118.273 159.197C118.212 161.794 116.085 164.124 113.762 164.136C111.301 164.148 109.174 161.701 109.236 158.942C109.302 156.131 111.45 153.94 113.999 154.085C116.455 154.224 118.34 156.479 118.273 159.197Z" fill="#FB675F"/>
<path d="M81.8708 312.969C81.804 315.786 79.6666 317.954 77.0925 317.815C74.6776 317.682 72.756 315.369 72.8331 312.679C72.9101 310.099 75.0629 307.752 77.3596 307.746C79.7796 307.734 81.9376 310.233 81.8708 312.969Z" fill="#FB675F"/>
<path d="M332.168 225.591C329.789 225.591 327.718 223.348 327.661 220.71C327.6 217.969 329.727 215.517 332.178 215.517C334.624 215.517 336.766 217.974 336.699 220.71C336.632 223.319 334.526 225.591 332.168 225.591Z" fill="#FB675F"/>
<path d="M327.662 97.3423C327.764 94.5194 329.917 92.4153 332.517 92.6066C334.937 92.7862 336.828 95.1454 336.699 97.8292C336.571 100.42 334.361 102.733 332.07 102.658C329.588 102.582 327.559 100.136 327.662 97.3423Z" fill="#FB675F"/>
<path d="M332.25 338.439C334.613 338.491 336.787 341.111 336.694 343.783C336.602 346.386 334.454 348.629 332.096 348.588C329.712 348.548 327.672 346.258 327.656 343.621C327.641 340.954 329.917 338.386 332.25 338.439Z" fill="#FB675F"/>
<path d="M150.175 71.8951C147.858 71.9183 145.715 69.5997 145.633 66.9913C145.546 64.1858 147.586 61.8498 150.139 61.8382C152.621 61.8209 154.609 63.925 154.676 66.6377C154.748 69.3447 152.585 71.8719 150.175 71.8951Z" fill="#FB675F"/>
<path d="M336.699 35.9854C336.715 38.6809 334.464 41.214 332.101 41.1618C329.727 41.1038 327.703 38.8142 327.661 36.1477C327.62 33.3132 329.665 31.0467 332.234 31.0757C334.706 31.1047 336.679 33.2784 336.699 35.9854Z" fill="#FB675F"/>
<path d="M300.307 374.447C300.266 377.038 298.149 379.322 295.785 379.339C293.283 379.357 291.177 376.968 291.249 374.198C291.321 371.549 293.381 369.288 295.755 369.271C298.2 369.253 300.353 371.699 300.307 374.447Z" fill="#FB675F"/>
<path d="M373.102 128.209C373.138 130.887 370.908 133.414 368.524 133.385C366.196 133.362 364.095 131.026 364.049 128.412C364.002 125.711 366.196 123.241 368.622 123.27C370.99 123.293 373.066 125.589 373.102 128.209Z" fill="#FB675F"/>
<path d="M150.237 123.264C152.605 123.305 154.661 125.606 154.681 128.238C154.702 130.933 152.467 133.432 150.083 133.38C147.652 133.333 145.525 130.8 145.633 128.087C145.736 125.525 147.93 123.224 150.237 123.264Z" fill="#FB675F"/>
<path d="M368.596 307.781C371.047 307.787 373.179 310.256 373.102 312.992C373.025 315.658 370.98 317.832 368.55 317.821C366.109 317.809 364.1 315.635 364.044 312.946C363.992 310.21 366.14 307.775 368.596 307.781Z" fill="#FB675F"/>
<path d="M118.268 343.522C118.304 346.154 116.3 348.484 113.916 348.583C111.43 348.681 109.246 346.357 109.236 343.604C109.231 341.076 111.342 338.584 113.603 338.462C115.931 338.329 118.232 340.833 118.268 343.522Z" fill="#FB675F"/>
<path d="M81.8708 251.473C81.804 254.273 79.6358 256.481 77.1079 256.325C74.6828 256.174 72.7715 253.878 72.8382 251.2C72.9102 248.493 75.212 246.123 77.6114 246.291C79.9749 246.453 81.9324 248.83 81.8708 251.473Z" fill="#FB675F"/>
<path d="M368.478 194.887C366.109 194.829 364.059 192.51 364.049 189.873C364.038 187.16 366.268 184.685 368.668 184.743C371.103 184.801 373.215 187.334 373.102 190.058C372.994 192.632 370.785 194.939 368.478 194.887Z" fill="#FB675F"/>
<path d="M368.58 246.285C371.042 246.297 373.174 248.748 373.107 251.484C373.04 254.133 370.98 256.342 368.57 256.336C366.037 256.336 363.982 253.994 364.059 251.189C364.126 248.586 366.258 246.273 368.58 246.285Z" fill="#FB675F"/>
<path d="M368.462 379.339C366.078 379.281 364.044 376.98 364.049 374.343C364.054 371.589 366.248 369.195 368.688 369.271C371.165 369.352 373.22 371.833 373.102 374.592C372.989 377.206 370.846 379.397 368.462 379.339Z" fill="#FB675F"/>
<path d="M118.273 282.137C118.263 284.71 116.162 287.075 113.834 287.139C111.435 287.203 109.195 284.722 109.236 282.038C109.277 279.488 111.409 277.076 113.685 277.018C116.079 276.955 118.284 279.418 118.273 282.137Z" fill="#FB675F"/>
<path d="M81.8708 128.232C81.8964 130.945 79.682 133.437 77.2877 133.385C74.9705 133.339 72.869 130.98 72.8382 128.389C72.8022 125.682 74.9962 123.241 77.4264 123.276C79.795 123.317 81.8399 125.595 81.8708 128.232Z" fill="#FB675F"/>
<path d="M81.8657 374.25C81.9171 376.899 79.9338 379.229 77.5446 379.339C75.0424 379.455 72.8536 377.16 72.833 374.406C72.8125 371.757 74.7855 369.427 77.1644 369.282C79.5998 369.137 81.8143 371.473 81.8657 374.25Z" fill="#FB675F"/>
<path d="M373.097 67.0725C372.963 69.6404 370.723 71.9707 368.457 71.8895C366.017 71.8026 363.931 69.2752 364.049 66.545C364.172 63.751 366.371 61.6352 368.94 61.8497C371.417 62.0584 373.241 64.3481 373.097 67.0725Z" fill="#FB675F"/>
<path d="M336.699 282.085C336.715 284.618 334.588 287.07 332.301 287.145C329.891 287.226 327.651 284.78 327.662 282.09C327.672 279.511 329.748 277.111 332.049 277.018C334.418 276.92 336.679 279.383 336.699 282.085Z" fill="#FB675F"/>
<path d="M4.69832 0.185935C7.17483 0.214918 9.14781 2.37123 9.17864 5.07821C9.20947 7.7794 6.96931 10.3067 4.58528 10.2661C2.26805 10.2255 0.135791 7.84896 0.0998247 5.2637C0.0689968 2.45818 2.15502 0.151156 4.69832 0.185935Z" fill="#FB675F"/>
<path d="M223.129 10.2548C220.833 10.3069 218.623 7.98243 218.526 5.40288C218.418 2.60305 220.447 0.232184 222.991 0.185811C225.457 0.139437 227.497 2.24365 227.594 4.93334C227.692 7.61144 225.524 10.1968 223.129 10.2548Z" fill="#FB675F"/>
<path d="M300.405 5.26955C300.348 7.82581 298.164 10.243 295.893 10.2545C293.443 10.2719 291.3 7.82581 291.341 5.06668C291.387 2.25537 293.52 0.0642966 296.089 0.19182C298.555 0.313546 300.466 2.55679 300.405 5.26955Z" fill="#FB675F"/>
<path d="M81.9633 5.02057C82.0198 7.74493 79.8464 10.2548 77.4367 10.249C75.1246 10.2432 72.9872 7.90143 72.9307 5.3046C72.869 2.49909 74.9088 0.192088 77.4624 0.186291C79.9389 0.180495 81.9068 2.29622 81.9633 5.02057Z" fill="#FB675F"/>
<path d="M150.273 10.2489C147.955 10.272 145.813 7.9534 145.731 5.34493C145.643 2.53938 147.683 0.203351 150.237 0.191757C152.718 0.174368 154.707 2.27853 154.774 4.99134C154.84 7.69835 152.677 10.2257 150.273 10.2489Z" fill="#FB675F"/>
<path d="M373.2 66.5627C373.235 69.2408 371.006 71.7682 368.622 71.7393C366.294 71.7161 364.193 69.3799 364.146 66.7656C364.1 64.0643 366.294 61.5948 368.719 61.6238C371.083 61.6528 373.164 63.9425 373.2 66.5627Z" fill="#FB675F"/>
<path d="M368.693 246.134C371.144 246.14 373.276 248.609 373.199 251.345C373.122 254.012 371.077 256.186 368.647 256.174C366.207 256.162 364.198 253.989 364.141 251.299C364.085 248.563 366.232 246.128 368.693 246.134Z" fill="#FB675F"/>
<path d="M368.575 133.24C366.207 133.182 364.157 130.864 364.146 128.226C364.136 125.514 366.366 123.038 368.765 123.096C371.201 123.154 373.313 125.687 373.2 128.412C373.092 130.986 370.877 133.293 368.575 133.24Z" fill="#FB675F"/>
<path d="M368.673 184.638C371.134 184.65 373.266 187.102 373.2 189.838C373.133 192.487 371.072 194.695 368.663 194.69C366.13 194.69 364.074 192.348 364.152 189.542C364.218 186.94 366.351 184.627 368.673 184.638Z" fill="#FB675F"/>
<path d="M368.56 317.692C366.176 317.635 364.141 315.333 364.146 312.696C364.152 309.943 366.345 307.549 368.786 307.624C371.262 307.705 373.318 310.186 373.199 312.945C373.081 315.559 370.944 317.75 368.56 317.692Z" fill="#FB675F"/>
<path d="M373.107 5.17683C373.143 7.8549 370.913 10.3823 368.529 10.3533C366.202 10.3301 364.1 7.99402 364.054 5.37971C364.008 2.67845 366.202 0.209062 368.627 0.238046C370.99 0.267029 373.071 2.55672 373.107 5.17683Z" fill="#FB675F"/>
<path d="M441.905 128.029C441.941 130.707 439.711 133.235 437.327 133.206C434.999 133.182 432.898 130.846 432.851 128.232C432.805 125.531 434.999 123.062 437.424 123.091C439.788 123.12 441.869 125.409 441.905 128.029Z" fill="#FB675F"/>
<path d="M437.399 307.607C439.849 307.613 441.982 310.082 441.905 312.818C441.828 315.485 439.783 317.658 437.352 317.647C434.912 317.635 432.903 315.461 432.846 312.772C432.795 310.036 434.943 307.595 437.399 307.607Z" fill="#FB675F"/>
<path d="M437.28 194.707C434.912 194.649 432.862 192.33 432.851 189.693C432.841 186.98 435.071 184.505 437.471 184.563C439.906 184.621 442.018 187.154 441.905 189.878C441.797 192.452 439.587 194.765 437.28 194.707Z" fill="#FB675F"/>
<path d="M437.378 246.111C439.839 246.122 441.971 248.574 441.905 251.31C441.838 253.959 439.777 256.168 437.368 256.162C434.835 256.162 432.78 253.82 432.857 251.015C432.929 248.406 435.056 246.099 437.378 246.111Z" fill="#FB675F"/>
<path d="M437.265 379.16C434.881 379.102 432.846 376.8 432.851 374.163C432.857 371.409 435.05 369.015 437.491 369.091C439.968 369.172 442.023 371.653 441.905 374.412C441.786 377.032 439.649 379.223 437.265 379.16Z" fill="#FB675F"/>
<path d="M441.899 66.8987C441.766 69.4665 439.526 71.7966 437.26 71.7155C434.819 71.6285 432.733 69.1013 432.851 66.3712C432.975 63.5773 435.174 61.4616 437.743 61.6761C440.219 61.8848 442.038 64.1686 441.899 66.8987Z" fill="#FB675F"/>
<path d="M442.002 66.3829C442.038 69.0608 439.808 71.5881 437.424 71.5591C435.097 71.5359 432.995 69.1999 432.949 66.5858C432.903 63.8846 435.097 61.4154 437.522 61.4443C439.885 61.4733 441.961 63.7629 442.002 66.3829Z" fill="#FB675F"/>
<path d="M437.496 245.96C439.947 245.966 442.079 248.436 442.002 251.172C441.925 253.838 439.88 256.012 437.45 256C435.009 255.989 433 253.815 432.944 251.125C432.887 248.389 435.035 245.949 437.496 245.96Z" fill="#FB675F"/>
<path d="M437.378 133.061C435.009 133.003 432.959 130.684 432.949 128.047C432.939 125.334 435.169 122.859 437.568 122.917C440.004 122.975 442.115 125.508 442.002 128.232C441.894 130.806 439.68 133.119 437.378 133.061Z" fill="#FB675F"/>
<path d="M437.476 184.465C439.937 184.476 442.069 186.928 442.002 189.664C441.935 192.313 439.875 194.522 437.465 194.516C434.932 194.516 432.877 192.174 432.954 189.369C433.021 186.766 435.153 184.453 437.476 184.465Z" fill="#FB675F"/>
<path d="M437.357 317.519C434.973 317.461 432.939 315.16 432.944 312.522C432.949 309.769 435.143 307.375 437.584 307.45C440.06 307.532 442.115 310.012 441.997 312.772C441.884 315.386 439.742 317.577 437.357 317.519Z" fill="#FB675F"/>
<path d="M441.91 5.00275C441.946 7.68082 439.716 10.2082 437.332 10.1792C435.004 10.156 432.903 7.81994 432.857 5.20564C432.81 2.50438 435.004 0.0349899 437.429 0.0639733C439.793 0.0871601 441.874 2.38265 441.91 5.00275Z" fill="#FB675F"/>
</svg>
